<svg width="96" height="96" viewBox="0 0 96 96" fill="none" xmlns="http://www.w3.org/2000/svg">
<rect width="96" height="96" fill="#D9D9D9"/>
<mask id="mask0_170_54" style="mask-type:alpha" maskUnits="userSpaceOnUse" x="0" y="0" width="96" height="96">
<rect width="96" height="96" fill="white"/>
</mask>
<g mask="url(#mask0_170_54)">
<g clip-path="url(#clip0_170_54)">
<path d="M46.0853 66.3188C45.2334 66.3235 44.55 67.0173 44.5548 67.8665L44.7115 95.8719C44.7163 96.7238 45.41 97.4072 46.2593 97.4024C47.1085 97.3977 47.7946 96.7039 47.7898 95.8547L47.6331 67.8493C47.6283 66.9974 46.9346 66.314 46.0853 66.3188Z" fill="url(#paint0_linear_170_54)"/>
<path d="M51.0731 68.4808C50.2212 68.4855 49.5378 69.1793 49.5425 70.0285L49.6208 84.009C49.6256 84.8609 50.3193 85.5443 51.1686 85.5395C52.0205 85.5348 52.7039 84.841 52.6991 83.9918L52.6209 70.0113C52.6161 69.1594 51.9224 68.476 51.0731 68.4808Z" fill="url(#paint1_linear_170_54)"/>
<path d="M31.1554 66.2455C30.3035 66.2503 29.6201 66.944 29.6248 67.7933L29.7022 81.6144C29.7063 82.3513 30.3054 82.9437 31.0424 82.9396L31.4578 82.9373C32.1948 82.9332 32.7872 82.334 32.7831 81.5971L32.7058 67.7761C32.701 66.9242 32.0073 66.2408 31.158 66.2455L31.1554 66.2455Z" fill="url(#paint2_linear_170_54)"/>
<path d="M95.7567 49.2846C94.9048 49.2894 94.2214 49.9831 94.2261 50.8324L94.3606 74.8605C94.3654 75.7124 95.0591 76.3958 95.9084 76.391C96.7577 76.3863 97.4437 75.6925 97.4389 74.8432L97.3045 50.8178C97.2997 49.9659 96.606 49.2825 95.7567 49.2872L95.7567 49.2846Z" fill="url(#paint3_linear_170_54)"/>
<path d="M95.7096 40.8598C94.8577 40.8646 94.1743 41.5583 94.179 42.4076L94.1991 45.9928C94.2039 46.8447 94.8976 47.5281 95.7469 47.5234C96.5988 47.5186 97.2821 46.8249 97.2774 45.9756L97.2573 42.3903C97.2526 41.5384 96.5588 40.855 95.7096 40.8598Z" fill="url(#paint4_linear_170_54)"/>
<path d="M95.9129 77.1802C95.061 77.185 94.3776 77.8787 94.3824 78.728L94.5582 110.146C94.563 110.998 95.2567 111.681 96.106 111.677C96.9553 111.672 97.6413 110.978 97.6365 110.129L97.4607 78.7108C97.4559 77.8589 96.7622 77.1755 95.9129 77.1802Z" fill="url(#paint5_linear_170_54)"/>
<path d="M90.7579 45.5939C89.906 45.5987 89.2226 46.2924 89.2274 47.1417L89.3149 62.7763C89.3196 63.6282 90.0134 64.3116 90.8626 64.3068C91.7119 64.3021 92.3979 63.6083 92.3932 62.7591L92.3057 47.1245C92.3009 46.2726 91.6072 45.5892 90.7579 45.5939Z" fill="url(#paint6_linear_170_54)"/>
<path d="M90.869 65.4671C90.0171 65.4719 89.3337 66.1656 89.3384 67.0149L89.6105 115.633C89.6153 116.485 90.309 117.168 91.1583 117.163C92.0076 117.159 92.6936 116.465 92.6889 115.616L92.4168 66.9976C92.412 66.1457 91.7183 65.4623 90.869 65.4671Z" fill="url(#paint7_linear_170_54)"/>
<path d="M36.1292 65.938C35.2773 65.9428 34.5939 66.6365 34.5987 67.4858L34.7127 87.8607C34.7169 88.5976 35.316 89.1901 36.0529 89.186L36.4684 89.1836C37.2053 89.1795 37.7978 88.5804 37.7937 87.8435L37.6796 67.4686C37.6749 66.6167 36.9811 65.9333 36.1319 65.938L36.1292 65.938Z" fill="url(#paint8_linear_170_54)"/>
<path d="M36.0872 58.4383C35.2354 58.4431 34.552 59.1368 34.5567 59.9861L34.5763 63.4929C34.5805 64.2298 35.1796 64.8223 35.9165 64.8182L36.332 64.8159C37.0689 64.8117 37.6614 64.2126 37.6573 63.4757L37.6376 59.9688C37.6329 59.1169 36.9391 58.4335 36.0899 58.4383L36.0872 58.4383Z" fill="url(#paint9_linear_170_54)"/>
<path d="M80.7241 30.859C79.8722 30.8638 79.1862 31.5576 79.191 32.4068L79.6174 108.604C79.6222 109.456 80.3159 110.14 81.1678 110.135C82.0197 110.13 82.7031 109.436 82.6984 108.587L82.2719 32.3896C82.2671 31.5377 81.5734 30.8543 80.7241 30.859Z" fill="url(#paint10_linear_170_54)"/>
<path d="M65.8272 37.1385C64.9754 37.1432 64.2919 37.837 64.2967 38.6863L64.7249 115.187C64.7296 116.039 65.4233 116.722 66.2726 116.717C67.1219 116.713 67.8079 116.019 67.8032 115.17L67.375 38.669C67.3702 37.8171 66.6765 37.1337 65.8272 37.1385Z" fill="url(#paint11_linear_170_54)"/>
<path d="M70.8619 47.2366C70.01 47.2414 69.3266 47.9351 69.3314 48.7844L69.5386 85.8052C69.5433 86.6571 70.2371 87.3405 71.0863 87.3357C71.9356 87.331 72.6216 86.6372 72.6169 85.7879L72.4097 48.7672C72.4049 47.9153 71.7112 47.2319 70.8619 47.2366Z" fill="url(#paint12_linear_170_54)"/>
<path d="M71.0907 88.1224C70.2388 88.1271 69.5554 88.8209 69.5601 89.6701L69.6525 106.178C69.6573 107.029 70.351 107.713 71.2003 107.708C72.0496 107.703 72.7356 107.01 72.7308 106.16L72.6384 89.6529C72.6337 88.801 71.9399 88.1176 71.0907 88.1224Z" fill="url(#paint13_linear_170_54)"/>
<path d="M75.9037 59.0464C75.0518 59.0512 74.3684 59.7449 74.3731 60.5942L74.6734 114.256C74.6782 115.108 75.3719 115.791 76.2212 115.786C77.0705 115.781 77.7565 115.088 77.7518 114.238L77.4514 60.577C77.4467 59.7251 76.7529 59.0417 75.9037 59.0464Z" fill="url(#paint14_linear_170_54)"/>
<path d="M75.8962 57.7059C76.7481 57.7011 77.4315 57.0074 77.4268 56.1581L77.3665 45.384C77.3617 44.5321 76.668 43.8487 75.8187 43.8534C74.9694 43.8582 74.2834 44.5519 74.2882 45.4012L74.3485 56.1753C74.3532 57.0272 75.0469 57.7106 75.8962 57.7059Z" fill="url(#paint15_linear_170_54)"/>
<path d="M75.8112 42.513C76.6631 42.5082 77.3465 41.8145 77.3418 40.9652L77.323 37.6125C77.3182 36.7606 76.6245 36.0772 75.7752 36.082C74.926 36.0867 74.2399 36.7805 74.2447 37.6297L74.2635 40.9824C74.2682 41.8343 74.9619 42.5177 75.8112 42.513Z" fill="url(#paint16_linear_170_54)"/>
<path d="M60.9432 53.5274C60.0913 53.5322 59.4079 54.2259 59.4127 55.0752L59.6577 98.851C59.6624 99.7029 60.3562 100.386 61.2054 100.382C62.0547 100.377 62.7407 99.683 62.736 98.8338L62.491 55.0579C62.4862 54.206 61.7925 53.5226 60.9432 53.5274Z" fill="url(#paint17_linear_170_54)"/>
<path d="M85.8016 49.0346C84.9497 49.0394 84.2663 49.7331 84.2711 50.5824L84.5648 103.063C84.5696 103.915 85.2633 104.598 86.1126 104.593C86.9618 104.588 87.6478 103.895 87.6431 103.045L87.3494 50.5678C87.3446 49.7159 86.6509 49.0325 85.8016 49.0372L85.8016 49.0346Z" fill="url(#paint18_linear_170_54)"/>
<path d="M56.0208 63.0333C55.1689 63.038 54.4856 63.7317 54.4903 64.581L54.6292 89.3983C54.634 90.2502 55.3277 90.9336 56.177 90.9288C57.0262 90.9241 57.7123 90.2304 57.7075 89.3811L57.5686 64.5638C57.5638 63.7119 56.8701 63.0285 56.0208 63.0333Z" fill="url(#paint19_linear_170_54)"/>
<path d="M41.024 51.4803C40.1721 51.485 39.4887 52.1788 39.4935 53.028L39.644 79.9254C39.6481 80.6623 40.2473 81.2548 40.9842 81.2507L41.3997 81.2483C42.1366 81.2442 42.7291 80.6451 42.7249 79.9082L42.5744 53.0108C42.5696 52.1589 41.8759 51.4755 41.0266 51.4803L41.024 51.4803Z" fill="url(#paint20_linear_170_54)"/>
<path d="M41.1998 82.8854C40.3479 82.8902 39.6645 83.5839 39.6693 84.4332L39.7464 98.2151C39.7505 98.952 40.3497 99.5444 41.0866 99.5403L41.5021 99.538C42.239 99.5339 42.8314 98.9347 42.8273 98.1978L42.7502 84.416C42.7454 83.5641 42.0517 82.8807 41.2024 82.8854L41.1998 82.8854Z" fill="url(#paint21_linear_170_54)"/>
</g>
</g>
<path d="M18.5483 16.7415C18.482 16.0123 18.187 15.4455 17.6634 15.0412C17.1463 14.6302 16.4072 14.4247 15.446 14.4247C14.8097 14.4247 14.2794 14.5076 13.8551 14.6733C13.4309 14.839 13.1127 15.0677 12.9006 15.3594C12.6884 15.6444 12.5791 15.9725 12.5724 16.3438C12.5592 16.6487 12.6188 16.9171 12.7514 17.1491C12.8906 17.3812 13.0895 17.5866 13.348 17.7656C13.6132 17.938 13.9313 18.0904 14.3026 18.223C14.6738 18.3556 15.0914 18.4716 15.5554 18.571L17.3054 18.9688C18.313 19.1875 19.2012 19.4792 19.9702 19.8438C20.7457 20.2083 21.3954 20.6425 21.919 21.1463C22.4493 21.6501 22.8504 22.2301 23.1222 22.8864C23.3939 23.5426 23.5331 24.2784 23.5398 25.0938C23.5331 26.3797 23.2083 27.4834 22.5653 28.4048C21.9223 29.3262 20.9976 30.0322 19.7912 30.5227C18.5914 31.0133 17.143 31.2585 15.446 31.2585C13.7424 31.2585 12.2576 31.0033 10.9915 30.4929C9.72538 29.9825 8.741 29.2069 8.03835 28.1662C7.3357 27.1255 6.97443 25.8097 6.95455 24.2188H11.6676C11.7074 24.875 11.883 25.4219 12.1946 25.8594C12.5062 26.2969 12.9337 26.6283 13.4773 26.8537C14.0275 27.0791 14.6638 27.1918 15.3864 27.1918C16.0492 27.1918 16.6127 27.1023 17.0767 26.9233C17.5473 26.7443 17.9086 26.4957 18.1605 26.1776C18.4124 25.8594 18.5417 25.4948 18.5483 25.0838C18.5417 24.6993 18.4223 24.3712 18.1903 24.0994C17.9583 23.821 17.6004 23.5824 17.1165 23.3835C16.6392 23.178 16.0294 22.9891 15.2869 22.8168L13.1591 22.3196C11.3958 21.9152 10.0071 21.2623 8.9929 20.3608C7.97869 19.4527 7.47491 18.2263 7.48153 16.6818C7.47491 15.4223 7.81297 14.3187 8.49574 13.3707C9.1785 12.4228 10.1231 11.6837 11.3295 11.1534C12.536 10.6231 13.9115 10.358 15.456 10.358C17.0336 10.358 18.4025 10.6264 19.5625 11.1634C20.7292 11.6937 21.634 12.4394 22.277 13.4006C22.92 14.3617 23.2481 15.4754 23.2614 16.7415H18.5483ZM31.7548 31.2884C30.1507 31.2884 28.7719 30.9602 27.6185 30.304C26.4717 29.6411 25.5867 28.7197 24.9636 27.5398C24.3472 26.3532 24.0389 24.9777 24.0389 23.4134C24.0389 21.8423 24.3472 20.4669 24.9636 19.2869C25.5867 18.1004 26.4717 17.179 27.6185 16.5227C28.7719 15.8598 30.1507 15.5284 31.7548 15.5284C33.359 15.5284 34.7345 15.8598 35.8813 16.5227C37.0347 17.179 37.9196 18.1004 38.5361 19.2869C39.1592 20.4669 39.4707 21.8423 39.4707 23.4134C39.4707 24.9777 39.1592 26.3532 38.5361 27.5398C37.9196 28.7197 37.0347 29.6411 35.8813 30.304C34.7345 30.9602 33.359 31.2884 31.7548 31.2884ZM31.7847 27.6193C32.368 27.6193 32.8618 27.4403 33.2662 27.0824C33.6706 26.7244 33.9788 26.2273 34.1909 25.5909C34.4097 24.9545 34.519 24.2187 34.519 23.3835C34.519 22.535 34.4097 21.7926 34.1909 21.1562C33.9788 20.5199 33.6706 20.0227 33.2662 19.6648C32.8618 19.3068 32.368 19.1278 31.7847 19.1278C31.1814 19.1278 30.671 19.3068 30.2534 19.6648C29.8424 20.0227 29.5276 20.5199 29.3088 21.1562C29.0967 21.7926 28.9906 22.535 28.9906 23.3835C28.9906 24.2187 29.0967 24.9545 29.3088 25.5909C29.5276 26.2273 29.8424 26.7244 30.2534 27.0824C30.671 27.4403 31.1814 27.6193 31.7847 27.6193ZM50.4152 24.4077V15.7273H55.2675V31H50.634V28.1562H50.4749C50.1368 29.0909 49.5601 29.8333 48.7447 30.3835C47.936 30.9271 46.9583 31.1989 45.8115 31.1989C44.7708 31.1989 43.856 30.9602 43.0672 30.483C42.2784 30.0057 41.6652 29.3395 41.2277 28.4844C40.7902 27.6226 40.5681 26.6151 40.5615 25.4616V15.7273H45.4237V24.5071C45.4304 25.3357 45.6491 25.9886 46.08 26.4659C46.5108 26.9432 47.0975 27.1818 47.8399 27.1818C48.3238 27.1818 48.758 27.0758 49.1425 26.8636C49.5336 26.6449 49.8418 26.33 50.0672 25.919C50.2992 25.5014 50.4152 24.9976 50.4152 24.4077ZM61.8245 22.2898V31H56.9623V15.7273H61.5859V18.5312H61.7549C62.093 17.5966 62.6697 16.8641 63.485 16.3338C64.3004 15.7969 65.2715 15.5284 66.3984 15.5284C67.4722 15.5284 68.4036 15.7704 69.1924 16.2543C69.9879 16.7315 70.6043 17.401 71.0418 18.2628C71.486 19.1179 71.7047 20.1188 71.6981 21.2656V31H66.8359V22.2202C66.8425 21.3717 66.6271 20.7088 66.1896 20.2315C65.7587 19.7543 65.1588 19.5156 64.3898 19.5156C63.8794 19.5156 63.4287 19.6283 63.0376 19.8537C62.6531 20.0724 62.3548 20.3873 62.1427 20.7983C61.9372 21.2093 61.8311 21.7064 61.8245 22.2898ZM78.8865 31.2188C77.7596 31.2188 76.7355 30.9271 75.8141 30.3438C74.8927 29.7604 74.1569 28.8854 73.6067 27.7188C73.0565 26.5521 72.7814 25.1037 72.7814 23.3736C72.7814 21.5772 73.0664 20.099 73.6365 18.9389C74.2066 17.7789 74.9523 16.9205 75.8737 16.3636C76.8018 15.8068 77.7994 15.5284 78.8666 15.5284C79.6687 15.5284 80.3548 15.6676 80.9249 15.946C81.4949 16.2178 81.9656 16.5691 82.3368 17C82.708 17.4309 82.9897 17.8783 83.182 18.3423H83.2814V10.6364H88.1436V31H83.3311V28.5241H83.182C82.9765 28.9948 82.6848 29.4356 82.307 29.8466C81.9291 30.2576 81.4552 30.589 80.8851 30.8409C80.3216 31.0928 79.6554 31.2188 78.8865 31.2188ZM80.5768 27.4304C81.1668 27.4304 81.6706 27.2647 82.0882 26.9332C82.5058 26.5952 82.8273 26.1212 83.0527 25.5114C83.2781 24.9015 83.3908 24.1856 83.3908 23.3636C83.3908 22.5284 83.2781 21.8092 83.0527 21.206C82.834 20.6027 82.5125 20.1387 82.0882 19.8139C81.6706 19.4891 81.1668 19.3267 80.5768 19.3267C79.9736 19.3267 79.4632 19.4924 79.0456 19.8239C78.628 20.1553 78.3098 20.6226 78.0911 21.2259C77.8789 21.8291 77.7729 22.5417 77.7729 23.3636C77.7729 24.1856 77.8822 24.9015 78.101 25.5114C78.3197 26.1212 78.6346 26.5952 79.0456 26.9332C79.4632 27.2647 79.9736 27.4304 80.5768 27.4304ZM7.54119 61V40.6364H15.9531C17.4777 40.6364 18.7936 40.9347 19.9006 41.5312C21.0142 42.1212 21.8726 42.9465 22.4759 44.0071C23.0791 45.0611 23.3807 46.2874 23.3807 47.6861C23.3807 49.0914 23.0724 50.321 22.456 51.375C21.8461 52.4223 20.9744 53.2344 19.8409 53.8111C18.7074 54.3878 17.3617 54.6761 15.804 54.6761H10.6136V50.7983H14.8892C15.6316 50.7983 16.2514 50.669 16.7486 50.4105C17.2524 50.152 17.6335 49.7907 17.892 49.3267C18.1506 48.8561 18.2798 48.3092 18.2798 47.6861C18.2798 47.0563 18.1506 46.5128 17.892 46.0554C17.6335 45.5914 17.2524 45.2334 16.7486 44.9815C16.2448 44.7296 15.625 44.6037 14.8892 44.6037H12.4631V61H7.54119ZM28.1653 61.2585C27.1909 61.2585 26.3259 61.0961 25.5702 60.7713C24.8211 60.4399 24.2278 59.9427 23.7903 59.2798C23.3595 58.6103 23.144 57.7718 23.144 56.7642C23.144 55.9157 23.2932 55.1998 23.5915 54.6165C23.8898 54.0331 24.3008 53.5592 24.8244 53.1946C25.3481 52.83 25.9513 52.5549 26.6341 52.3693C27.3169 52.1771 28.046 52.0478 28.8216 51.9815C29.69 51.902 30.3893 51.8191 30.9196 51.733C31.4499 51.6402 31.8344 51.5109 32.073 51.3452C32.3183 51.1728 32.4409 50.9309 32.4409 50.6193V50.5696C32.4409 50.0592 32.2652 49.6648 31.9139 49.3864C31.5626 49.108 31.0886 48.9688 30.492 48.9688C29.8491 48.9688 29.332 49.108 28.9409 49.3864C28.5498 49.6648 28.3012 50.0492 28.1952 50.5398L23.7108 50.3807C23.8434 49.4527 24.1848 48.6241 24.7349 47.8949C25.2918 47.1591 26.0541 46.5824 27.0219 46.1648C27.9963 45.7405 29.1663 45.5284 30.5318 45.5284C31.5063 45.5284 32.4045 45.6444 33.2264 45.8764C34.0484 46.1018 34.7643 46.4332 35.3741 46.8707C35.984 47.3016 36.4546 47.8319 36.7861 48.4616C37.1241 49.0914 37.2932 49.8106 37.2932 50.6193V61H32.7193V58.8722H32.6C32.3282 59.3892 31.9802 59.8267 31.556 60.1847C31.1384 60.5426 30.6445 60.8111 30.0744 60.9901C29.511 61.169 28.8746 61.2585 28.1653 61.2585ZM29.6668 58.0767C30.1904 58.0767 30.6611 57.9706 31.0787 57.7585C31.5029 57.5464 31.841 57.2547 32.0929 56.8835C32.3448 56.5057 32.4707 56.0682 32.4707 55.571V54.1193C32.3315 54.1922 32.1625 54.2585 31.9636 54.3182C31.7714 54.3778 31.5593 54.4342 31.3273 54.4872C31.0953 54.5402 30.8566 54.5866 30.6114 54.6264C30.3661 54.6662 30.1308 54.7027 29.9054 54.7358C29.448 54.8087 29.0569 54.9214 28.7321 55.0739C28.4139 55.2263 28.1687 55.4252 27.9963 55.6705C27.8306 55.9091 27.7477 56.1941 27.7477 56.5256C27.7477 57.0294 27.9267 57.4138 28.2847 57.679C28.6492 57.9441 29.1099 58.0767 29.6668 58.0767ZM45.9955 61.2884C44.3847 61.2884 43.0026 60.9569 41.8491 60.294C40.7024 59.6312 39.8207 58.7098 39.2043 57.5298C38.5878 56.3433 38.2795 54.9711 38.2795 53.4134C38.2795 51.849 38.5878 50.4768 39.2043 49.2969C39.8274 48.1103 40.7123 47.1856 41.8591 46.5227C43.0125 45.8598 44.388 45.5284 45.9855 45.5284C47.3974 45.5284 48.6271 45.7836 49.6744 46.294C50.7284 46.8045 51.5504 47.527 52.1403 48.4616C52.7369 49.3897 53.0518 50.4801 53.0849 51.733H48.5409C48.4481 50.9508 48.183 50.3376 47.7455 49.8935C47.3146 49.4493 46.7511 49.2273 46.0551 49.2273C45.4917 49.2273 44.9978 49.3864 44.5736 49.7045C44.1493 50.0161 43.8179 50.4801 43.5793 51.0966C43.3473 51.7064 43.2313 52.4621 43.2313 53.3636C43.2313 54.2652 43.3473 55.0275 43.5793 55.6506C43.8179 56.267 44.1493 56.7344 44.5736 57.0526C44.9978 57.3641 45.4917 57.5199 46.0551 57.5199C46.5059 57.5199 46.9036 57.4238 47.2483 57.2315C47.5996 57.0393 47.888 56.7576 48.1134 56.3864C48.3387 56.0085 48.4813 55.5511 48.5409 55.0142H53.0849C53.0385 56.2737 52.7237 57.3741 52.1403 58.3153C51.5636 59.2566 50.7516 59.9891 49.7043 60.5128C48.6635 61.0298 47.4273 61.2884 45.9955 61.2884ZM61.3124 61.2884C59.7149 61.2884 58.3361 60.9735 57.1761 60.3438C56.0227 59.7074 55.1344 58.8026 54.5113 57.6293C53.8948 56.4493 53.5866 55.0473 53.5866 53.4233C53.5866 51.8456 53.8981 50.4669 54.5212 49.2869C55.1443 48.1004 56.0227 47.179 57.1562 46.5227C58.2897 45.8598 59.6254 45.5284 61.1633 45.5284C62.2504 45.5284 63.2447 45.6974 64.1462 46.0355C65.0478 46.3736 65.8266 46.8741 66.4829 47.5369C67.1391 48.1998 67.6495 49.0185 68.0141 49.9929C68.3787 50.9607 68.561 52.071 68.561 53.3239V54.5369H55.2869V51.7131H64.0369C64.0302 51.196 63.9076 50.7353 63.669 50.331C63.4303 49.9266 63.1022 49.6117 62.6846 49.3864C62.2736 49.1544 61.7996 49.0384 61.2627 49.0384C60.7192 49.0384 60.2319 49.161 59.8011 49.4062C59.3702 49.6449 59.0288 49.973 58.7769 50.3906C58.525 50.8016 58.3924 51.2689 58.3792 51.7926V54.6662C58.3792 55.2893 58.5018 55.8362 58.7471 56.3068C58.9924 56.7708 59.3404 57.1321 59.7911 57.3906C60.2419 57.6491 60.7788 57.7784 61.4019 57.7784C61.8328 57.7784 62.2239 57.7187 62.5752 57.5994C62.9265 57.4801 63.2281 57.3045 63.48 57.0724C63.7319 56.8404 63.9209 56.5554 64.0468 56.2173L68.5113 56.3466C68.3257 57.3475 67.918 58.2192 67.2883 58.9616C66.6652 59.6974 65.8465 60.2708 64.8323 60.6818C63.8181 61.0862 62.6448 61.2884 61.3124 61.2884Z" fill="black"/>
<defs>
<linearGradient id="paint0_linear_170_54" x1="-20.4217" y1="82.2346" x2="217.805" y2="80.9013" gradientUnits="userSpaceOnUse">
<stop stop-color="#1DB954"/>
<stop offset="0.06" stop-color="#21B952"/>
<stop offset="0.13" stop-color="#30BC4E"/>
<stop offset="0.2" stop-color="#48C148"/>
<stop offset="0.28" stop-color="#69C73E"/>
<stop offset="0.35" stop-color="#94D033"/>
<stop offset="0.44" stop-color="#C7DA24"/>
<stop offset="0.46" stop-color="#D6DD21"/>
<stop offset="0.54" stop-color="#C7CC55"/>
<stop offset="0.68" stop-color="#B0B0B0"/>
<stop offset="1" stop-color="#666666"/>
</linearGradient>
<linearGradient id="paint1_linear_170_54" x1="-20.4487" y1="77.4107" x2="217.776" y2="76.0774" gradientUnits="userSpaceOnUse">
<stop stop-color="#1DB954"/>
<stop offset="0.06" stop-color="#21B952"/>
<stop offset="0.13" stop-color="#30BC4E"/>
<stop offset="0.2" stop-color="#48C148"/>
<stop offset="0.28" stop-color="#69C73E"/>
<stop offset="0.35" stop-color="#94D033"/>
<stop offset="0.44" stop-color="#C7DA24"/>
<stop offset="0.46" stop-color="#D6DD21"/>
<stop offset="0.54" stop-color="#C7CC55"/>
<stop offset="0.68" stop-color="#B0B0B0"/>
<stop offset="1" stop-color="#666666"/>
</linearGradient>
<linearGradient id="paint2_linear_170_54" x1="-20.4629" y1="74.8838" x2="217.764" y2="73.5505" gradientUnits="userSpaceOnUse">
<stop stop-color="#1DB954"/>
<stop offset="0.06" stop-color="#21B952"/>
<stop offset="0.13" stop-color="#30BC4E"/>
<stop offset="0.2" stop-color="#48C148"/>
<stop offset="0.28" stop-color="#69C73E"/>
<stop offset="0.35" stop-color="#94D033"/>
<stop offset="0.44" stop-color="#C7DA24"/>
<stop offset="0.46" stop-color="#D6DD21"/>
<stop offset="0.54" stop-color="#C7CC55"/>
<stop offset="0.68" stop-color="#B0B0B0"/>
<stop offset="1" stop-color="#666666"/>
</linearGradient>
<linearGradient id="paint3_linear_170_54" x1="-20.5263" y1="63.493" x2="217.7" y2="62.1597" gradientUnits="userSpaceOnUse">
<stop stop-color="#1DB954"/>
<stop offset="0.06" stop-color="#21B952"/>
<stop offset="0.13" stop-color="#30BC4E"/>
<stop offset="0.2" stop-color="#48C148"/>
<stop offset="0.28" stop-color="#69C73E"/>
<stop offset="0.35" stop-color="#94D033"/>
<stop offset="0.44" stop-color="#C7DA24"/>
<stop offset="0.46" stop-color="#D6DD21"/>
<stop offset="0.54" stop-color="#C7CC55"/>
<stop offset="0.68" stop-color="#B0B0B0"/>
<stop offset="1" stop-color="#666666"/>
</linearGradient>
<linearGradient id="paint4_linear_170_54" x1="-20.6307" y1="44.8454" x2="217.596" y2="43.5121" gradientUnits="userSpaceOnUse">
<stop stop-color="#1DB954"/>
<stop offset="0.06" stop-color="#21B952"/>
<stop offset="0.13" stop-color="#30BC4E"/>
<stop offset="0.2" stop-color="#48C148"/>
<stop offset="0.28" stop-color="#69C73E"/>
<stop offset="0.35" stop-color="#94D033"/>
<stop offset="0.44" stop-color="#C7DA24"/>
<stop offset="0.46" stop-color="#D6DD21"/>
<stop offset="0.54" stop-color="#C7CC55"/>
<stop offset="0.68" stop-color="#B0B0B0"/>
<stop offset="1" stop-color="#666666"/>
</linearGradient>
<linearGradient id="paint5_linear_170_54" x1="-20.3494" y1="95.081" x2="217.877" y2="93.7477" gradientUnits="userSpaceOnUse">
<stop stop-color="#1DB954"/>
<stop offset="0.06" stop-color="#21B952"/>
<stop offset="0.13" stop-color="#30BC4E"/>
<stop offset="0.2" stop-color="#48C148"/>
<stop offset="0.28" stop-color="#69C73E"/>
<stop offset="0.35" stop-color="#94D033"/>
<stop offset="0.44" stop-color="#C7DA24"/>
<stop offset="0.46" stop-color="#D6DD21"/>
<stop offset="0.54" stop-color="#C7CC55"/>
<stop offset="0.68" stop-color="#B0B0B0"/>
<stop offset="1" stop-color="#666666"/>
</linearGradient>
<linearGradient id="paint6_linear_170_54" x1="-20.5708" y1="55.5751" x2="217.654" y2="54.2418" gradientUnits="userSpaceOnUse">
<stop stop-color="#1DB954"/>
<stop offset="0.06" stop-color="#21B952"/>
<stop offset="0.13" stop-color="#30BC4E"/>
<stop offset="0.2" stop-color="#48C148"/>
<stop offset="0.28" stop-color="#69C73E"/>
<stop offset="0.35" stop-color="#94D033"/>
<stop offset="0.44" stop-color="#C7DA24"/>
<stop offset="0.46" stop-color="#D6DD21"/>
<stop offset="0.54" stop-color="#C7CC55"/>
<stop offset="0.68" stop-color="#B0B0B0"/>
<stop offset="1" stop-color="#666666"/>
</linearGradient>
<linearGradient id="paint7_linear_170_54" x1="-20.3675" y1="91.9373" x2="217.857" y2="90.6041" gradientUnits="userSpaceOnUse">
<stop stop-color="#1DB954"/>
<stop offset="0.06" stop-color="#21B952"/>
<stop offset="0.13" stop-color="#30BC4E"/>
<stop offset="0.2" stop-color="#48C148"/>
<stop offset="0.28" stop-color="#69C73E"/>
<stop offset="0.35" stop-color="#94D033"/>
<stop offset="0.44" stop-color="#C7DA24"/>
<stop offset="0.46" stop-color="#D6DD21"/>
<stop offset="0.54" stop-color="#C7CC55"/>
<stop offset="0.68" stop-color="#B0B0B0"/>
<stop offset="1" stop-color="#666666"/>
</linearGradient>
<linearGradient id="paint8_linear_170_54" x1="-20.4461" y1="77.8784" x2="217.781" y2="76.5451" gradientUnits="userSpaceOnUse">
<stop stop-color="#1DB954"/>
<stop offset="0.06" stop-color="#21B952"/>
<stop offset="0.13" stop-color="#30BC4E"/>
<stop offset="0.2" stop-color="#48C148"/>
<stop offset="0.28" stop-color="#69C73E"/>
<stop offset="0.35" stop-color="#94D033"/>
<stop offset="0.44" stop-color="#C7DA24"/>
<stop offset="0.46" stop-color="#D6DD21"/>
<stop offset="0.54" stop-color="#C7CC55"/>
<stop offset="0.68" stop-color="#B0B0B0"/>
<stop offset="1" stop-color="#666666"/>
</linearGradient>
<linearGradient id="paint9_linear_170_54" x1="-20.5352" y1="61.946" x2="217.691" y2="60.6127" gradientUnits="userSpaceOnUse">
<stop stop-color="#1DB954"/>
<stop offset="0.06" stop-color="#21B952"/>
<stop offset="0.13" stop-color="#30BC4E"/>
<stop offset="0.2" stop-color="#48C148"/>
<stop offset="0.28" stop-color="#69C73E"/>
<stop offset="0.35" stop-color="#94D033"/>
<stop offset="0.44" stop-color="#C7DA24"/>
<stop offset="0.46" stop-color="#D6DD21"/>
<stop offset="0.54" stop-color="#C7CC55"/>
<stop offset="0.68" stop-color="#B0B0B0"/>
<stop offset="1" stop-color="#666666"/>
</linearGradient>
<linearGradient id="paint10_linear_170_54" x1="-20.4843" y1="71.0659" x2="217.743" y2="69.7326" gradientUnits="userSpaceOnUse">
<stop stop-color="#1DB954"/>
<stop offset="0.06" stop-color="#21B952"/>
<stop offset="0.13" stop-color="#30BC4E"/>
<stop offset="0.2" stop-color="#48C148"/>
<stop offset="0.28" stop-color="#69C73E"/>
<stop offset="0.35" stop-color="#94D033"/>
<stop offset="0.44" stop-color="#C7DA24"/>
<stop offset="0.46" stop-color="#D6DD21"/>
<stop offset="0.54" stop-color="#C7CC55"/>
<stop offset="0.68" stop-color="#B0B0B0"/>
<stop offset="1" stop-color="#666666"/>
</linearGradient>
<linearGradient id="paint11_linear_170_54" x1="-20.4486" y1="77.4107" x2="217.776" y2="76.0774" gradientUnits="userSpaceOnUse">
<stop stop-color="#1DB954"/>
<stop offset="0.06" stop-color="#21B952"/>
<stop offset="0.13" stop-color="#30BC4E"/>
<stop offset="0.2" stop-color="#48C148"/>
<stop offset="0.28" stop-color="#69C73E"/>
<stop offset="0.35" stop-color="#94D033"/>
<stop offset="0.44" stop-color="#C7DA24"/>
<stop offset="0.46" stop-color="#D6DD21"/>
<stop offset="0.54" stop-color="#C7CC55"/>
<stop offset="0.68" stop-color="#B0B0B0"/>
<stop offset="1" stop-color="#666666"/>
</linearGradient>
<linearGradient id="paint12_linear_170_54" x1="-20.5025" y1="67.7994" x2="217.724" y2="66.4662" gradientUnits="userSpaceOnUse">
<stop stop-color="#1DB954"/>
<stop offset="0.06" stop-color="#21B952"/>
<stop offset="0.13" stop-color="#30BC4E"/>
<stop offset="0.2" stop-color="#48C148"/>
<stop offset="0.28" stop-color="#69C73E"/>
<stop offset="0.35" stop-color="#94D033"/>
<stop offset="0.44" stop-color="#C7DA24"/>
<stop offset="0.46" stop-color="#D6DD21"/>
<stop offset="0.54" stop-color="#C7CC55"/>
<stop offset="0.68" stop-color="#B0B0B0"/>
<stop offset="1" stop-color="#666666"/>
</linearGradient>
<linearGradient id="paint13_linear_170_54" x1="-20.3311" y1="98.4285" x2="217.896" y2="97.0952" gradientUnits="userSpaceOnUse">
<stop stop-color="#1DB954"/>
<stop offset="0.06" stop-color="#21B952"/>
<stop offset="0.13" stop-color="#30BC4E"/>
<stop offset="0.2" stop-color="#48C148"/>
<stop offset="0.28" stop-color="#69C73E"/>
<stop offset="0.35" stop-color="#94D033"/>
<stop offset="0.44" stop-color="#C7DA24"/>
<stop offset="0.46" stop-color="#D6DD21"/>
<stop offset="0.54" stop-color="#C7CC55"/>
<stop offset="0.68" stop-color="#B0B0B0"/>
<stop offset="1" stop-color="#666666"/>
</linearGradient>
<linearGradient id="paint14_linear_170_54" x1="-20.3896" y1="87.9574" x2="217.837" y2="86.6241" gradientUnits="userSpaceOnUse">
<stop stop-color="#1DB954"/>
<stop offset="0.06" stop-color="#21B952"/>
<stop offset="0.13" stop-color="#30BC4E"/>
<stop offset="0.2" stop-color="#48C148"/>
<stop offset="0.28" stop-color="#69C73E"/>
<stop offset="0.35" stop-color="#94D033"/>
<stop offset="0.44" stop-color="#C7DA24"/>
<stop offset="0.46" stop-color="#D6DD21"/>
<stop offset="0.54" stop-color="#C7CC55"/>
<stop offset="0.68" stop-color="#B0B0B0"/>
<stop offset="1" stop-color="#666666"/>
</linearGradient>
<linearGradient id="paint15_linear_170_54" x1="-20.5946" y1="51.3182" x2="217.63" y2="49.9849" gradientUnits="userSpaceOnUse">
<stop stop-color="#1DB954"/>
<stop offset="0.06" stop-color="#21B952"/>
<stop offset="0.13" stop-color="#30BC4E"/>
<stop offset="0.2" stop-color="#48C148"/>
<stop offset="0.28" stop-color="#69C73E"/>
<stop offset="0.35" stop-color="#94D033"/>
<stop offset="0.44" stop-color="#C7DA24"/>
<stop offset="0.46" stop-color="#D6DD21"/>
<stop offset="0.54" stop-color="#C7CC55"/>
<stop offset="0.68" stop-color="#B0B0B0"/>
<stop offset="1" stop-color="#666666"/>
</linearGradient>
<linearGradient id="paint16_linear_170_54" x1="-20.6588" y1="39.836" x2="217.568" y2="38.5027" gradientUnits="userSpaceOnUse">
<stop stop-color="#1DB954"/>
<stop offset="0.06" stop-color="#21B952"/>
<stop offset="0.13" stop-color="#30BC4E"/>
<stop offset="0.2" stop-color="#48C148"/>
<stop offset="0.28" stop-color="#69C73E"/>
<stop offset="0.35" stop-color="#94D033"/>
<stop offset="0.44" stop-color="#C7DA24"/>
<stop offset="0.46" stop-color="#D6DD21"/>
<stop offset="0.54" stop-color="#C7CC55"/>
<stop offset="0.68" stop-color="#B0B0B0"/>
<stop offset="1" stop-color="#666666"/>
</linearGradient>
<linearGradient id="paint17_linear_170_54" x1="-20.4487" y1="77.4107" x2="217.778" y2="76.0774" gradientUnits="userSpaceOnUse">
<stop stop-color="#1DB954"/>
<stop offset="0.06" stop-color="#21B952"/>
<stop offset="0.13" stop-color="#30BC4E"/>
<stop offset="0.2" stop-color="#48C148"/>
<stop offset="0.28" stop-color="#69C73E"/>
<stop offset="0.35" stop-color="#94D033"/>
<stop offset="0.44" stop-color="#C7DA24"/>
<stop offset="0.46" stop-color="#D6DD21"/>
<stop offset="0.54" stop-color="#C7CC55"/>
<stop offset="0.68" stop-color="#B0B0B0"/>
<stop offset="1" stop-color="#666666"/>
</linearGradient>
<linearGradient id="paint18_linear_170_54" x1="-20.4486" y1="77.4107" x2="217.778" y2="76.0774" gradientUnits="userSpaceOnUse">
<stop stop-color="#1DB954"/>
<stop offset="0.06" stop-color="#21B952"/>
<stop offset="0.13" stop-color="#30BC4E"/>
<stop offset="0.2" stop-color="#48C148"/>
<stop offset="0.28" stop-color="#69C73E"/>
<stop offset="0.35" stop-color="#94D033"/>
<stop offset="0.44" stop-color="#C7DA24"/>
<stop offset="0.46" stop-color="#D6DD21"/>
<stop offset="0.54" stop-color="#C7CC55"/>
<stop offset="0.68" stop-color="#B0B0B0"/>
<stop offset="1" stop-color="#666666"/>
</linearGradient>
<linearGradient id="paint19_linear_170_54" x1="-20.4487" y1="77.4108" x2="217.778" y2="76.0775" gradientUnits="userSpaceOnUse">
<stop stop-color="#1DB954"/>
<stop offset="0.06" stop-color="#21B952"/>
<stop offset="0.13" stop-color="#30BC4E"/>
<stop offset="0.2" stop-color="#48C148"/>
<stop offset="0.28" stop-color="#69C73E"/>
<stop offset="0.35" stop-color="#94D033"/>
<stop offset="0.44" stop-color="#C7DA24"/>
<stop offset="0.46" stop-color="#D6DD21"/>
<stop offset="0.54" stop-color="#C7CC55"/>
<stop offset="0.68" stop-color="#B0B0B0"/>
<stop offset="1" stop-color="#666666"/>
</linearGradient>
<linearGradient id="paint20_linear_170_54" x1="-20.5086" y1="66.7097" x2="217.719" y2="65.3764" gradientUnits="userSpaceOnUse">
<stop stop-color="#1DB954"/>
<stop offset="0.06" stop-color="#21B952"/>
<stop offset="0.13" stop-color="#30BC4E"/>
<stop offset="0.2" stop-color="#48C148"/>
<stop offset="0.28" stop-color="#69C73E"/>
<stop offset="0.35" stop-color="#94D033"/>
<stop offset="0.44" stop-color="#C7DA24"/>
<stop offset="0.46" stop-color="#D6DD21"/>
<stop offset="0.54" stop-color="#C7CC55"/>
<stop offset="0.68" stop-color="#B0B0B0"/>
<stop offset="1" stop-color="#666666"/>
</linearGradient>
<linearGradient id="paint21_linear_170_54" x1="-20.3696" y1="91.5585" x2="217.858" y2="90.2252" gradientUnits="userSpaceOnUse">
<stop stop-color="#1DB954"/>
<stop offset="0.06" stop-color="#21B952"/>
<stop offset="0.13" stop-color="#30BC4E"/>
<stop offset="0.2" stop-color="#48C148"/>
<stop offset="0.28" stop-color="#69C73E"/>
<stop offset="0.35" stop-color="#94D033"/>
<stop offset="0.44" stop-color="#C7DA24"/>
<stop offset="0.46" stop-color="#D6DD21"/>
<stop offset="0.54" stop-color="#C7CC55"/>
<stop offset="0.68" stop-color="#B0B0B0"/>
<stop offset="1" stop-color="#666666"/>
</linearGradient>
<clipPath id="clip0_170_54">
<rect width="272.218" height="91.9955" fill="white" transform="translate(-38 31.5236) rotate(-0.320665)"/>
</clipPath>
</defs>
</svg>
