<svg width="125" height="19" viewBox="0 0 125 19" fill="none" xmlns="http://www.w3.org/2000/svg">
<path d="M10.7557 5.77841C10.6989 5.15341 10.446 4.66761 9.99716 4.32102C9.55398 3.96875 8.92045 3.79261 8.09659 3.79261C7.55114 3.79261 7.09659 3.86364 6.73295 4.00568C6.36932 4.14773 6.09659 4.34375 5.91477 4.59375C5.73295 4.83807 5.6392 5.11932 5.63352 5.4375C5.62216 5.69886 5.6733 5.92898 5.78693 6.12784C5.90625 6.3267 6.0767 6.50284 6.2983 6.65625C6.52557 6.80398 6.7983 6.93466 7.11648 7.0483C7.43466 7.16193 7.79261 7.26136 8.19034 7.34659L9.69034 7.6875C10.554 7.875 11.3153 8.125 11.9744 8.4375C12.6392 8.75 13.196 9.12216 13.6449 9.55398C14.0994 9.9858 14.4432 10.483 14.6761 11.0455C14.9091 11.608 15.0284 12.2386 15.0341 12.9375C15.0284 14.0398 14.75 14.9858 14.1989 15.7756C13.6477 16.5653 12.8551 17.1705 11.821 17.5909C10.7926 18.0114 9.55114 18.2216 8.09659 18.2216C6.63636 18.2216 5.36364 18.0028 4.27841 17.5653C3.19318 17.1278 2.34943 16.4631 1.74716 15.571C1.14489 14.679 0.835227 13.5511 0.818182 12.1875H4.85795C4.89205 12.75 5.04261 13.2188 5.30966 13.5938C5.5767 13.9688 5.94318 14.2528 6.40909 14.446C6.88068 14.6392 7.42614 14.7358 8.04545 14.7358C8.61364 14.7358 9.09659 14.6591 9.49432 14.5057C9.89773 14.3523 10.2074 14.1392 10.4233 13.8665C10.6392 13.5937 10.75 13.2812 10.7557 12.929C10.75 12.5994 10.6477 12.3182 10.4489 12.0852C10.25 11.8466 9.94318 11.642 9.52841 11.4716C9.11932 11.2955 8.59659 11.1335 7.96023 10.9858L6.13636 10.5597C4.625 10.2131 3.43466 9.65341 2.56534 8.88068C1.69602 8.10227 1.2642 7.05114 1.26989 5.72727C1.2642 4.64773 1.55398 3.7017 2.1392 2.8892C2.72443 2.0767 3.53409 1.44318 4.56818 0.988636C5.60227 0.534091 6.78125 0.306818 8.10511 0.306818C9.45739 0.306818 10.6307 0.536931 11.625 0.997158C12.625 1.4517 13.4006 2.09091 13.9517 2.91477C14.5028 3.73864 14.7841 4.69318 14.7955 5.77841H10.7557ZM22.0756 18.2472C20.7006 18.2472 19.5188 17.9659 18.5301 17.4034C17.5472 16.8352 16.7886 16.0455 16.2545 15.0341C15.7261 14.017 15.4619 12.8381 15.4619 11.4972C15.4619 10.1506 15.7261 8.97159 16.2545 7.96023C16.7886 6.94318 17.5472 6.15341 18.5301 5.59091C19.5188 5.02273 20.7006 4.73864 22.0756 4.73864C23.4506 4.73864 24.6295 5.02273 25.6125 5.59091C26.6011 6.15341 27.3597 6.94318 27.8881 7.96023C28.4222 8.97159 28.6892 10.1506 28.6892 11.4972C28.6892 12.8381 28.4222 14.017 27.8881 15.0341C27.3597 16.0455 26.6011 16.8352 25.6125 17.4034C24.6295 17.9659 23.4506 18.2472 22.0756 18.2472ZM22.1011 15.1023C22.6011 15.1023 23.0244 14.9489 23.371 14.642C23.7176 14.3352 23.9818 13.9091 24.1636 13.3636C24.3511 12.8182 24.4449 12.1875 24.4449 11.4716C24.4449 10.7443 24.3511 10.108 24.1636 9.5625C23.9818 9.01705 23.7176 8.59091 23.371 8.28409C23.0244 7.97727 22.6011 7.82386 22.1011 7.82386C21.5841 7.82386 21.1466 7.97727 20.7886 8.28409C20.4364 8.59091 20.1665 9.01705 19.979 9.5625C19.7972 10.108 19.7063 10.7443 19.7063 11.4716C19.7063 12.1875 19.7972 12.8182 19.979 13.3636C20.1665 13.9091 20.4364 14.3352 20.7886 14.642C21.1466 14.9489 21.5841 15.1023 22.1011 15.1023ZM38.0702 12.3494V4.90909H42.2293V18H38.2577V15.5625H38.1213C37.8315 16.3636 37.3372 17 36.6384 17.4716C35.9452 17.9375 35.1071 18.1705 34.1241 18.1705C33.2321 18.1705 32.448 17.9659 31.7719 17.5568C31.0957 17.1477 30.5702 16.5767 30.1952 15.8438C29.8202 15.1051 29.6298 14.2415 29.6241 13.2528V4.90909H33.7918V12.4347C33.7974 13.1449 33.9849 13.7045 34.3543 14.1136C34.7236 14.5227 35.2264 14.7273 35.8628 14.7273C36.2776 14.7273 36.6497 14.6364 36.9793 14.4545C37.3145 14.267 37.5787 13.9972 37.7719 13.6449C37.9707 13.2869 38.0702 12.8551 38.0702 12.3494ZM47.8496 10.5341V18H43.682V4.90909H47.645V7.3125H47.7899C48.0797 6.51136 48.574 5.88352 49.2729 5.42898C49.9717 4.96875 50.8041 4.73864 51.77 4.73864C52.6905 4.73864 53.4888 4.94602 54.1649 5.36079C54.8467 5.76989 55.3751 6.34375 55.7501 7.08239C56.1308 7.81534 56.3183 8.6733 56.3126 9.65625V18H52.145V10.4744C52.1507 9.74716 51.9661 9.17898 51.5911 8.76989C51.2217 8.3608 50.7075 8.15625 50.0484 8.15625C49.6109 8.15625 49.2246 8.25284 48.8893 8.44602C48.5598 8.63352 48.3041 8.90341 48.1223 9.25568C47.9462 9.60795 47.8553 10.0341 47.8496 10.5341ZM62.4741 18.1875C61.5082 18.1875 60.6304 17.9375 59.8406 17.4375C59.0509 16.9375 58.4202 16.1875 57.9486 15.1875C57.477 14.1875 57.2412 12.946 57.2412 11.4631C57.2412 9.9233 57.4855 8.65625 57.9741 7.66193C58.4628 6.66761 59.102 5.93182 59.8918 5.45454C60.6872 4.97727 61.5423 4.73864 62.4571 4.73864C63.1446 4.73864 63.7327 4.85795 64.2213 5.09659C64.7099 5.32955 65.1134 5.63068 65.4315 6C65.7497 6.36932 65.9912 6.75284 66.156 7.15057H66.2412V0.545454H70.4088V18H66.2838V15.8778H66.156C65.9798 16.2812 65.7298 16.6591 65.406 17.0114C65.0821 17.3636 64.6759 17.6477 64.1872 17.8636C63.7043 18.0795 63.1332 18.1875 62.4741 18.1875ZM63.923 14.9403C64.4287 14.9403 64.8605 14.7983 65.2185 14.5142C65.5764 14.2244 65.852 13.8182 66.0452 13.2955C66.2384 12.7727 66.3349 12.1591 66.3349 11.4545C66.3349 10.7386 66.2384 10.1222 66.0452 9.60511C65.8577 9.08807 65.5821 8.69034 65.2185 8.41193C64.8605 8.13352 64.4287 7.99432 63.923 7.99432C63.406 7.99432 62.9685 8.13636 62.6105 8.42045C62.2526 8.70455 61.9798 9.10511 61.7923 9.62216C61.6105 10.1392 61.5196 10.75 61.5196 11.4545C61.5196 12.1591 61.6134 12.7727 61.8009 13.2955C61.9884 13.8182 62.2582 14.2244 62.6105 14.5142C62.9685 14.7983 63.406 14.9403 63.923 14.9403ZM71.8445 18V0.545454H79.0547C80.3615 0.545454 81.4893 0.801136 82.4382 1.3125C83.3928 1.81818 84.1286 2.52557 84.6456 3.43466C85.1626 4.33807 85.4212 5.3892 85.4212 6.58807C85.4212 7.79261 85.157 8.84659 84.6286 9.75C84.1058 10.6477 83.3587 11.3437 82.3871 11.8381C81.4155 12.3324 80.2621 12.5795 78.9268 12.5795H74.478V9.25568H78.1428C78.7791 9.25568 79.3104 9.14489 79.7365 8.9233C80.1683 8.7017 80.495 8.39205 80.7166 7.99432C80.9382 7.59091 81.049 7.12216 81.049 6.58807C81.049 6.04829 80.9382 5.58239 80.7166 5.19034C80.495 4.79261 80.1683 4.4858 79.7365 4.26989C79.3047 4.05398 78.7734 3.94602 78.1428 3.94602H76.0632V18H71.8445ZM89.5223 18.2216C88.6871 18.2216 87.9456 18.0824 87.2979 17.804C86.6558 17.5199 86.1473 17.0937 85.7723 16.5256C85.403 15.9517 85.2183 15.233 85.2183 14.3693C85.2183 13.642 85.3462 13.0284 85.6018 12.5284C85.8575 12.0284 86.2098 11.6222 86.6587 11.3097C87.1075 10.9972 87.6246 10.7614 88.2098 10.6023C88.795 10.4375 89.42 10.3267 90.0848 10.2699C90.8291 10.2017 91.4286 10.1307 91.8831 10.0568C92.3376 9.97727 92.6672 9.86648 92.8717 9.72443C93.082 9.5767 93.1871 9.36932 93.1871 9.10227V9.05966C93.1871 8.62216 93.0365 8.28409 92.7354 8.04545C92.4342 7.80682 92.028 7.6875 91.5166 7.6875C90.9655 7.6875 90.5223 7.80682 90.1871 8.04545C89.8518 8.28409 89.6388 8.61364 89.5479 9.03409L85.7041 8.89773C85.8178 8.10227 86.1104 7.39205 86.582 6.76705C87.0592 6.13636 87.7126 5.64205 88.5422 5.28409C89.3774 4.92045 90.3803 4.73864 91.5507 4.73864C92.3859 4.73864 93.1558 4.83807 93.8604 5.03693C94.5649 5.23011 95.1786 5.5142 95.7013 5.8892C96.224 6.25852 96.6274 6.71307 96.9115 7.25284C97.2013 7.79261 97.3462 8.40909 97.3462 9.10227V18H93.4257V16.1761H93.3234C93.0905 16.6193 92.7922 16.9943 92.4286 17.3011C92.0706 17.608 91.6473 17.8381 91.1587 17.9915C90.6757 18.1449 90.1303 18.2216 89.5223 18.2216ZM90.8092 15.4943C91.2581 15.4943 91.6615 15.4034 92.0195 15.2216C92.3831 15.0398 92.6729 14.7898 92.8888 14.4716C93.1047 14.1477 93.2126 13.7727 93.2126 13.3466V12.1023C93.0933 12.1648 92.9484 12.2216 92.778 12.2727C92.6132 12.3239 92.4314 12.3722 92.2325 12.4176C92.0337 12.4631 91.8291 12.5028 91.6189 12.5369C91.4087 12.571 91.207 12.6023 91.0138 12.6307C90.6217 12.6932 90.2865 12.7898 90.0081 12.9205C89.7354 13.0511 89.5251 13.2216 89.3774 13.4318C89.2354 13.6364 89.1643 13.8807 89.1643 14.1648C89.1643 14.5966 89.3178 14.9261 89.6246 15.1534C89.9371 15.3807 90.332 15.4943 90.8092 15.4943ZM104.805 18.2472C103.425 18.2472 102.24 17.9631 101.251 17.3949C100.268 16.8267 99.5126 16.0369 98.9842 15.0256C98.4558 14.0085 98.1916 12.8324 98.1916 11.4972C98.1916 10.1562 98.4558 8.98011 98.9842 7.96875C99.5183 6.9517 100.277 6.15909 101.26 5.59091C102.248 5.02273 103.427 4.73864 104.797 4.73864C106.007 4.73864 107.061 4.95739 107.959 5.39489C108.862 5.83239 109.567 6.4517 110.072 7.25284C110.584 8.0483 110.854 8.98295 110.882 10.0568H106.987C106.908 9.38636 106.68 8.8608 106.305 8.48011C105.936 8.09943 105.453 7.90909 104.856 7.90909C104.373 7.90909 103.95 8.04545 103.587 8.31818C103.223 8.58523 102.939 8.98295 102.734 9.51136C102.535 10.0341 102.436 10.6818 102.436 11.4545C102.436 12.2273 102.535 12.8807 102.734 13.4148C102.939 13.9432 103.223 14.3437 103.587 14.6165C103.95 14.8835 104.373 15.017 104.856 15.017C105.243 15.017 105.584 14.9347 105.879 14.7699C106.18 14.6051 106.427 14.3636 106.621 14.0455C106.814 13.7216 106.936 13.3295 106.987 12.8693H110.882C110.842 13.9489 110.572 14.892 110.072 15.6989C109.578 16.5057 108.882 17.1335 107.984 17.5824C107.092 18.0256 106.033 18.2472 104.805 18.2472ZM117.934 18.2472C116.565 18.2472 115.383 17.9773 114.389 17.4375C113.4 16.892 112.639 16.1165 112.105 15.1108C111.576 14.0994 111.312 12.8977 111.312 11.5057C111.312 10.1534 111.579 8.97159 112.113 7.96023C112.647 6.94318 113.4 6.15341 114.372 5.59091C115.343 5.02273 116.488 4.73864 117.806 4.73864C118.738 4.73864 119.59 4.88352 120.363 5.17329C121.136 5.46307 121.803 5.89205 122.366 6.46023C122.928 7.02841 123.366 7.73011 123.678 8.56534C123.991 9.39489 124.147 10.3466 124.147 11.4205V12.4602H112.769V10.0398H120.269C120.264 9.59659 120.159 9.2017 119.954 8.85511C119.749 8.50852 119.468 8.23864 119.11 8.04545C118.758 7.84659 118.352 7.74716 117.891 7.74716C117.426 7.74716 117.008 7.85227 116.639 8.0625C116.269 8.26705 115.977 8.5483 115.761 8.90625C115.545 9.25852 115.431 9.65909 115.42 10.108V12.571C115.42 13.1051 115.525 13.5739 115.735 13.9773C115.945 14.375 116.244 14.6847 116.63 14.9062C117.016 15.1278 117.477 15.2386 118.011 15.2386C118.38 15.2386 118.715 15.1875 119.016 15.0852C119.318 14.983 119.576 14.8324 119.792 14.6335C120.008 14.4347 120.17 14.1903 120.278 13.9006L124.105 14.0114C123.945 14.8693 123.596 15.6165 123.056 16.2528C122.522 16.8835 121.82 17.375 120.951 17.7273C120.082 18.0739 119.076 18.2472 117.934 18.2472Z" fill="black"/>
</svg>
